<svg width="350" height="62" viewBox="0 0 350 62" fill="none" xmlns="http://www.w3.org/2000/svg">
<rect width="62" height="62" fill="white"/>
<path d="M47.7917 55.542H54.0417C54.8702 55.542 55.5417 54.8704 55.5417 54.042V47.792" stroke="#2A4157" stroke-opacity="0.24" stroke-linecap="round"/>
<path d="M47.7917 6.45801H54.0417C54.8702 6.45801 55.5417 7.12958 55.5417 7.95801V14.208" stroke="#2A4157" stroke-opacity="0.24" stroke-linecap="round"/>
<path d="M14.2083 55.542H7.95825C7.12983 55.542 6.45825 54.8704 6.45825 54.042V47.792" stroke="#2A4157" stroke-opacity="0.24" stroke-linecap="round"/>
<path d="M14.2083 6.45801H7.95825C7.12983 6.45801 6.45825 7.12958 6.45825 7.95801V14.208" stroke="#2A4157" stroke-opacity="0.24" stroke-linecap="round"/>
<path d="M20.673 43.4167C20.8295 37.1292 23.9535 31 31.0001 31C38.0467 31 41.1706 37.1292 41.3272 43.4167C41.3341 43.6927 41.1096 43.9167 40.8334 43.9167H21.1667C20.8906 43.9167 20.6661 43.6927 20.673 43.4167Z" fill="#222222"/>
<path d="M36.174 40.8334C36.32 35.8386 38.6668 31 43.9167 31C49.1667 31 51.5135 35.8386 51.6595 40.8334C51.6675 41.1094 51.4429 41.3333 51.1667 41.3333H36.6667C36.3906 41.3333 36.166 41.1094 36.174 40.8334Z" fill="#222222"/>
<path d="M10.3405 40.8334C10.4865 35.8386 12.8333 31 18.0833 31C23.3332 31 25.68 35.8386 25.826 40.8334C25.834 41.1094 25.6094 41.3333 25.3333 41.3333H10.8333C10.5571 41.3333 10.3325 41.1094 10.3405 40.8334Z" fill="#222222"/>
<circle cx="30.9999" cy="23.2497" r="5.16667" fill="#222222"/>
<circle cx="43.9167" cy="23.2497" r="5.16667" fill="#222222"/>
<circle cx="18.0834" cy="23.2497" r="5.16667" fill="#222222"/>
<path d="M101.312 38L96.3125 31.3239H94.5227V38H92.7614V23.4545H94.5227V29.7614H95.2898L101.114 23.4545H103.216L97.3352 29.8466L103.415 38H101.312ZM108.674 38.2557C107.983 38.2557 107.355 38.1255 106.792 37.8651C106.228 37.5999 105.781 37.2188 105.45 36.7216C105.118 36.2197 104.952 35.6136 104.952 34.9034C104.952 34.2784 105.076 33.7718 105.322 33.3835C105.568 32.9905 105.897 32.6828 106.309 32.4602C106.721 32.2377 107.175 32.072 107.673 31.9631C108.174 31.8494 108.679 31.7595 109.185 31.6932C109.848 31.608 110.386 31.544 110.798 31.5014C111.214 31.4541 111.517 31.3759 111.707 31.267C111.901 31.1581 111.998 30.9687 111.998 30.6989V30.642C111.998 29.9413 111.806 29.3968 111.423 29.0085C111.044 28.6203 110.469 28.4261 109.697 28.4261C108.897 28.4261 108.269 28.6013 107.815 28.9517C107.36 29.3021 107.04 29.6761 106.856 30.0739L105.265 29.5057C105.549 28.8428 105.928 28.3267 106.401 27.9574C106.879 27.5833 107.4 27.3229 107.964 27.1761C108.532 27.0246 109.091 26.9489 109.64 26.9489C109.99 26.9489 110.393 26.9915 110.847 27.0767C111.307 27.1572 111.749 27.3253 112.175 27.581C112.606 27.8366 112.964 28.2225 113.248 28.7386C113.532 29.2547 113.674 29.946 113.674 30.8125V38H111.998V36.5227H111.913C111.799 36.7595 111.61 37.0128 111.344 37.2827C111.079 37.5526 110.727 37.7822 110.286 37.9716C109.846 38.161 109.308 38.2557 108.674 38.2557ZM108.93 36.75C109.593 36.75 110.151 36.6198 110.606 36.3594C111.065 36.099 111.411 35.7628 111.643 35.3509C111.879 34.9389 111.998 34.5057 111.998 34.0511V32.517C111.927 32.6023 111.771 32.6804 111.529 32.7514C111.292 32.8177 111.018 32.8769 110.705 32.929C110.397 32.9763 110.097 33.0189 109.803 33.0568C109.514 33.09 109.28 33.1184 109.1 33.142C108.665 33.1989 108.257 33.2912 107.879 33.419C107.504 33.5421 107.201 33.7292 106.969 33.9801C106.742 34.2263 106.629 34.5625 106.629 34.9886C106.629 35.571 106.844 36.0114 107.275 36.3097C107.71 36.6032 108.262 36.75 108.93 36.75ZM115.767 38V36.4375H116.165C116.492 36.4375 116.764 36.3736 116.982 36.2457C117.2 36.1132 117.375 35.8835 117.507 35.5568C117.645 35.2254 117.749 34.7661 117.82 34.179C117.896 33.5871 117.95 32.8343 117.983 31.9205L118.182 27.0909H125.455V38H123.779V28.6534H119.773L119.603 32.5455C119.565 33.4403 119.484 34.2287 119.361 34.9105C119.243 35.5876 119.06 36.1558 118.814 36.6151C118.573 37.0743 118.251 37.42 117.848 37.652C117.446 37.884 116.942 38 116.336 38H115.767ZM129.979 31.0398H133.104C134.382 31.0398 135.36 31.3641 136.037 32.0128C136.714 32.6615 137.053 33.483 137.053 34.4773C137.053 35.1307 136.901 35.7249 136.598 36.2599C136.295 36.7902 135.85 37.214 135.263 37.5312C134.676 37.8438 133.956 38 133.104 38H128.53V27.0909H130.206V36.4375H133.104C133.767 36.4375 134.311 36.2623 134.738 35.9119C135.164 35.5616 135.377 35.1117 135.377 34.5625C135.377 33.9848 135.164 33.5137 134.738 33.1491C134.311 32.7846 133.767 32.6023 133.104 32.6023H129.979V31.0398ZM139.604 38V27.0909H141.281V31.8352H142.388L146.309 27.0909H148.468L144.065 32.3466L148.525 38H146.366L142.786 33.3977H141.281V38H139.604ZM151.426 42.0909C151.142 42.0909 150.889 42.0672 150.666 42.0199C150.444 41.9773 150.29 41.9347 150.205 41.892L150.631 40.4148C151.038 40.5189 151.398 40.5568 151.71 40.5284C152.023 40.5 152.3 40.3603 152.541 40.1094C152.787 39.8632 153.012 39.4631 153.216 38.9091L153.528 38.0568L149.494 27.0909H151.312L154.324 35.7841H154.438L157.449 27.0909H159.267L154.636 39.5909C154.428 40.1544 154.17 40.6207 153.862 40.9901C153.554 41.3641 153.197 41.6411 152.79 41.821C152.387 42.0009 151.933 42.0909 151.426 42.0909ZM159.596 38V36.4375H159.993C160.32 36.4375 160.592 36.3736 160.81 36.2457C161.028 36.1132 161.203 35.8835 161.336 35.5568C161.473 35.2254 161.577 34.7661 161.648 34.179C161.724 33.5871 161.778 32.8343 161.811 31.9205L162.01 27.0909H169.283V38H167.607V28.6534H163.601L163.431 32.5455C163.393 33.4403 163.312 34.2287 163.189 34.9105C163.071 35.5876 162.889 36.1558 162.642 36.6151C162.401 37.0743 162.079 37.42 161.676 37.652C161.274 37.884 160.77 38 160.164 38H159.596ZM178.921 38V28.625H176.023C175.37 28.625 174.856 28.7765 174.482 29.0795C174.108 29.3826 173.921 29.7992 173.921 30.3295C173.921 30.8504 174.089 31.2599 174.425 31.5582C174.766 31.8565 175.232 32.0057 175.824 32.0057H179.347V33.5682H175.824C175.086 33.5682 174.449 33.438 173.914 33.1776C173.379 32.9171 172.967 32.5455 172.678 32.0625C172.389 31.5748 172.245 30.9972 172.245 30.3295C172.245 29.6572 172.396 29.0795 172.699 28.5966C173.002 28.1136 173.435 27.742 173.999 27.4815C174.567 27.2211 175.242 27.0909 176.023 27.0909H180.512V38H178.921ZM171.648 38L174.745 32.5739H176.563L173.466 38H171.648ZM182.104 28.6534V27.0909H190.968V28.6534H187.388V38H185.712V28.6534H182.104ZM197.278 38.2273C196.294 38.2273 195.429 37.9929 194.686 37.5241C193.947 37.0554 193.37 36.3996 192.953 35.5568C192.541 34.714 192.335 33.7292 192.335 32.6023C192.335 31.4659 192.541 30.474 192.953 29.6264C193.37 28.7789 193.947 28.1207 194.686 27.652C195.429 27.1832 196.294 26.9489 197.278 26.9489C198.263 26.9489 199.125 27.1832 199.864 27.652C200.607 28.1207 201.185 28.7789 201.597 29.6264C202.013 30.474 202.222 31.4659 202.222 32.6023C202.222 33.7292 202.013 34.714 201.597 35.5568C201.185 36.3996 200.607 37.0554 199.864 37.5241C199.125 37.9929 198.263 38.2273 197.278 38.2273ZM197.278 36.7216C198.027 36.7216 198.642 36.5298 199.125 36.1463C199.608 35.7628 199.965 35.2585 200.197 34.6335C200.429 34.0085 200.545 33.3314 200.545 32.6023C200.545 31.8731 200.429 31.1937 200.197 30.5639C199.965 29.9342 199.608 29.4252 199.125 29.0369C198.642 28.6487 198.027 28.4545 197.278 28.4545C196.53 28.4545 195.915 28.6487 195.432 29.0369C194.949 29.4252 194.591 29.9342 194.359 30.5639C194.127 31.1937 194.011 31.8731 194.011 32.6023C194.011 33.3314 194.127 34.0085 194.359 34.6335C194.591 35.2585 194.949 35.7628 195.432 36.1463C195.915 36.5298 196.53 36.7216 197.278 36.7216ZM204.78 42.0909V27.0909H206.4V28.8239H206.598C206.721 28.6345 206.892 28.393 207.11 28.0994C207.332 27.8011 207.65 27.536 208.061 27.304C208.478 27.0672 209.042 26.9489 209.752 26.9489C210.67 26.9489 211.48 27.1785 212.181 27.6378C212.882 28.0971 213.428 28.7481 213.821 29.5909C214.214 30.4337 214.411 31.428 214.411 32.5739C214.411 33.7292 214.214 34.7306 213.821 35.5781C213.428 36.4209 212.884 37.0743 212.188 37.5384C211.492 37.9976 210.689 38.2273 209.78 38.2273C209.079 38.2273 208.518 38.1113 208.097 37.8793C207.676 37.6425 207.351 37.375 207.124 37.0767C206.897 36.7737 206.721 36.5227 206.598 36.3239H206.456V42.0909H204.78ZM206.428 32.5455C206.428 33.3693 206.549 34.0961 206.79 34.7259C207.032 35.3509 207.384 35.8409 207.848 36.196C208.312 36.5464 208.881 36.7216 209.553 36.7216C210.254 36.7216 210.838 36.5369 211.307 36.1676C211.781 35.7936 212.136 35.2917 212.373 34.6619C212.614 34.0275 212.735 33.322 212.735 32.5455C212.735 31.7784 212.616 31.0871 212.38 30.4716C212.148 29.8513 211.795 29.3613 211.321 29.0014C210.853 28.6368 210.263 28.4545 209.553 28.4545C208.871 28.4545 208.298 28.6274 207.834 28.973C207.37 29.3139 207.02 29.7921 206.783 30.4077C206.546 31.0185 206.428 31.7311 206.428 32.5455ZM222.593 38V27.0909H231.172V38H229.496V28.6534H224.269V38H222.593ZM238.807 38.2273C237.756 38.2273 236.849 37.9953 236.087 37.5312C235.329 37.0625 234.745 36.4091 234.333 35.571C233.926 34.7282 233.722 33.7481 233.722 32.6307C233.722 31.5133 233.926 30.5284 234.333 29.6761C234.745 28.8191 235.318 28.1515 236.051 27.6733C236.79 27.1903 237.652 26.9489 238.637 26.9489C239.205 26.9489 239.766 27.0436 240.32 27.233C240.874 27.4223 241.378 27.7301 241.833 28.1562C242.287 28.5777 242.65 29.1364 242.919 29.8324C243.189 30.5284 243.324 31.3854 243.324 32.4034V33.1136H234.915V31.6648H241.62C241.62 31.0492 241.497 30.5 241.25 30.017C241.009 29.5341 240.663 29.1529 240.213 28.8736C239.768 28.5942 239.243 28.4545 238.637 28.4545C237.969 28.4545 237.391 28.6203 236.904 28.9517C236.421 29.2784 236.049 29.7045 235.789 30.2301C235.528 30.7557 235.398 31.3191 235.398 31.9205V32.8864C235.398 33.7102 235.54 34.4086 235.824 34.9815C236.113 35.5497 236.513 35.983 237.025 36.2812C237.536 36.5748 238.13 36.7216 238.807 36.7216C239.248 36.7216 239.645 36.66 240 36.5369C240.36 36.4091 240.67 36.2197 240.931 35.9688C241.191 35.7131 241.392 35.3958 241.534 35.017L243.154 35.4716C242.983 36.0208 242.697 36.5038 242.294 36.9205C241.892 37.3324 241.395 37.6544 240.803 37.8864C240.211 38.1136 239.546 38.2273 238.807 38.2273ZM245.874 42.0909V27.0909H247.493V28.8239H247.692C247.815 28.6345 247.986 28.393 248.203 28.0994C248.426 27.8011 248.743 27.536 249.155 27.304C249.572 27.0672 250.135 26.9489 250.846 26.9489C251.764 26.9489 252.574 27.1785 253.275 27.6378C253.975 28.0971 254.522 28.7481 254.915 29.5909C255.308 30.4337 255.505 31.428 255.505 32.5739C255.505 33.7292 255.308 34.7306 254.915 35.5781C254.522 36.4209 253.978 37.0743 253.282 37.5384C252.586 37.9976 251.783 38.2273 250.874 38.2273C250.173 38.2273 249.612 38.1113 249.191 37.8793C248.769 37.6425 248.445 37.375 248.218 37.0767C247.99 36.7737 247.815 36.5227 247.692 36.3239H247.55V42.0909H245.874ZM247.522 32.5455C247.522 33.3693 247.642 34.0961 247.884 34.7259C248.125 35.3509 248.478 35.8409 248.942 36.196C249.406 36.5464 249.974 36.7216 250.647 36.7216C251.347 36.7216 251.932 36.5369 252.401 36.1676C252.874 35.7936 253.23 35.2917 253.466 34.6619C253.708 34.0275 253.828 33.322 253.828 32.5455C253.828 31.7784 253.71 31.0871 253.473 30.4716C253.241 29.8513 252.889 29.3613 252.415 29.0014C251.946 28.6368 251.357 28.4545 250.647 28.4545C249.965 28.4545 249.392 28.6274 248.928 28.973C248.464 29.3139 248.114 29.7921 247.877 30.4077C247.64 31.0185 247.522 31.7311 247.522 32.5455ZM262.493 38.2273C261.471 38.2273 260.59 37.9858 259.851 37.5028C259.113 37.0199 258.544 36.3546 258.147 35.5071C257.749 34.6596 257.55 33.6913 257.55 32.6023C257.55 31.4943 257.754 30.5166 258.161 29.669C258.573 28.8168 259.146 28.1515 259.88 27.6733C260.618 27.1903 261.48 26.9489 262.465 26.9489C263.232 26.9489 263.923 27.0909 264.539 27.375C265.154 27.6591 265.658 28.0568 266.051 28.5682C266.444 29.0795 266.688 29.6761 266.783 30.358H265.107C264.979 29.8608 264.695 29.4205 264.255 29.0369C263.819 28.6487 263.232 28.4545 262.493 28.4545C261.84 28.4545 261.267 28.625 260.775 28.9659C260.287 29.3021 259.906 29.7779 259.631 30.3935C259.361 31.0043 259.226 31.7216 259.226 32.5455C259.226 33.3883 259.359 34.1222 259.624 34.7472C259.894 35.3722 260.273 35.8575 260.76 36.2031C261.253 36.5488 261.83 36.7216 262.493 36.7216C262.929 36.7216 263.324 36.6458 263.679 36.4943C264.034 36.3428 264.335 36.125 264.581 35.8409C264.828 35.5568 265.003 35.2159 265.107 34.8182H266.783C266.688 35.4621 266.454 36.0421 266.08 36.5582C265.711 37.0696 265.221 37.4768 264.61 37.7798C264.004 38.0781 263.298 38.2273 262.493 38.2273ZM273.665 38.2273C272.68 38.2273 271.816 37.9929 271.073 37.5241C270.334 37.0554 269.757 36.3996 269.34 35.5568C268.928 34.714 268.722 33.7292 268.722 32.6023C268.722 31.4659 268.928 30.474 269.34 29.6264C269.757 28.7789 270.334 28.1207 271.073 27.652C271.816 27.1832 272.68 26.9489 273.665 26.9489C274.65 26.9489 275.512 27.1832 276.25 27.652C276.994 28.1207 277.571 28.7789 277.983 29.6264C278.4 30.474 278.608 31.4659 278.608 32.6023C278.608 33.7292 278.4 34.714 277.983 35.5568C277.571 36.3996 276.994 37.0554 276.25 37.5241C275.512 37.9929 274.65 38.2273 273.665 38.2273ZM273.665 36.7216C274.413 36.7216 275.029 36.5298 275.512 36.1463C275.995 35.7628 276.352 35.2585 276.584 34.6335C276.816 34.0085 276.932 33.3314 276.932 32.6023C276.932 31.8731 276.816 31.1937 276.584 30.5639C276.352 29.9342 275.995 29.4252 275.512 29.0369C275.029 28.6487 274.413 28.4545 273.665 28.4545C272.917 28.4545 272.301 28.6487 271.819 29.0369C271.336 29.4252 270.978 29.9342 270.746 30.5639C270.514 31.1937 270.398 31.8731 270.398 32.6023C270.398 33.3314 270.514 34.0085 270.746 34.6335C270.978 35.2585 271.336 35.7628 271.819 36.1463C272.301 36.5298 272.917 36.7216 273.665 36.7216ZM288.468 31.7784V33.3409H282.445V31.7784H288.468ZM282.843 27.0909V38H281.167V27.0909H282.843ZM289.746 27.0909V38H288.07V27.0909H289.746ZM296.018 38.2557C295.326 38.2557 294.699 38.1255 294.136 37.8651C293.572 37.5999 293.125 37.2188 292.793 36.7216C292.462 36.2197 292.296 35.6136 292.296 34.9034C292.296 34.2784 292.419 33.7718 292.665 33.3835C292.912 32.9905 293.241 32.6828 293.653 32.4602C294.065 32.2377 294.519 32.072 295.016 31.9631C295.518 31.8494 296.022 31.7595 296.529 31.6932C297.192 31.608 297.729 31.544 298.141 31.5014C298.558 31.4541 298.861 31.3759 299.05 31.267C299.245 31.1581 299.342 30.9687 299.342 30.6989V30.642C299.342 29.9413 299.15 29.3968 298.766 29.0085C298.388 28.6203 297.812 28.4261 297.04 28.4261C296.24 28.4261 295.613 28.6013 295.158 28.9517C294.704 29.3021 294.384 29.6761 294.2 30.0739L292.609 29.5057C292.893 28.8428 293.272 28.3267 293.745 27.9574C294.223 27.5833 294.744 27.3229 295.308 27.1761C295.876 27.0246 296.434 26.9489 296.984 26.9489C297.334 26.9489 297.737 26.9915 298.191 27.0767C298.65 27.1572 299.093 27.3253 299.519 27.581C299.95 27.8366 300.308 28.2225 300.592 28.7386C300.876 29.2547 301.018 29.946 301.018 30.8125V38H299.342V36.5227H299.256C299.143 36.7595 298.953 37.0128 298.688 37.2827C298.423 37.5526 298.07 37.7822 297.63 37.9716C297.19 38.161 296.652 38.2557 296.018 38.2557ZM296.273 36.75C296.936 36.75 297.495 36.6198 297.95 36.3594C298.409 36.099 298.754 35.7628 298.987 35.3509C299.223 34.9389 299.342 34.5057 299.342 34.0511V32.517C299.271 32.6023 299.114 32.6804 298.873 32.7514C298.636 32.8177 298.362 32.8769 298.049 32.929C297.741 32.9763 297.441 33.0189 297.147 33.0568C296.858 33.09 296.624 33.1184 296.444 33.142C296.008 33.1989 295.601 33.2912 295.222 33.419C294.848 33.5421 294.545 33.7292 294.313 33.9801C294.086 34.2263 293.972 34.5625 293.972 34.9886C293.972 35.571 294.188 36.0114 294.619 36.3097C295.054 36.6032 295.606 36.75 296.273 36.75ZM303.111 38V36.4375H303.509C303.836 36.4375 304.108 36.3736 304.326 36.2457C304.543 36.1132 304.719 35.8835 304.851 35.5568C304.989 35.2254 305.093 34.7661 305.164 34.179C305.239 33.5871 305.294 32.8343 305.327 31.9205L305.526 27.0909H312.799V38H311.123V28.6534H307.117L306.946 32.5455C306.908 33.4403 306.828 34.2287 306.705 34.9105C306.587 35.5876 306.404 36.1558 306.158 36.6151C305.917 37.0743 305.595 37.42 305.192 37.652C304.79 37.884 304.285 38 303.679 38H303.111ZM319.084 38.2557C318.393 38.2557 317.766 38.1255 317.202 37.8651C316.639 37.5999 316.191 37.2188 315.86 36.7216C315.528 36.2197 315.363 35.6136 315.363 34.9034C315.363 34.2784 315.486 33.7718 315.732 33.3835C315.978 32.9905 316.307 32.6828 316.719 32.4602C317.131 32.2377 317.586 32.072 318.083 31.9631C318.585 31.8494 319.089 31.7595 319.596 31.6932C320.258 31.608 320.796 31.544 321.208 31.5014C321.624 31.4541 321.927 31.3759 322.117 31.267C322.311 31.1581 322.408 30.9687 322.408 30.6989V30.642C322.408 29.9413 322.216 29.3968 321.833 29.0085C321.454 28.6203 320.879 28.4261 320.107 28.4261C319.307 28.4261 318.679 28.6013 318.225 28.9517C317.77 29.3021 317.451 29.6761 317.266 30.0739L315.675 29.5057C315.959 28.8428 316.338 28.3267 316.811 27.9574C317.29 27.5833 317.81 27.3229 318.374 27.1761C318.942 27.0246 319.501 26.9489 320.05 26.9489C320.4 26.9489 320.803 26.9915 321.257 27.0767C321.717 27.1572 322.159 27.3253 322.586 27.581C323.016 27.8366 323.374 28.2225 323.658 28.7386C323.942 29.2547 324.084 29.946 324.084 30.8125V38H322.408V36.5227H322.323C322.209 36.7595 322.02 37.0128 321.755 37.2827C321.489 37.5526 321.137 37.7822 320.696 37.9716C320.256 38.161 319.719 38.2557 319.084 38.2557ZM319.34 36.75C320.003 36.75 320.561 36.6198 321.016 36.3594C321.475 36.099 321.821 35.7628 322.053 35.3509C322.29 34.9389 322.408 34.5057 322.408 34.0511V32.517C322.337 32.6023 322.181 32.6804 321.939 32.7514C321.703 32.8177 321.428 32.8769 321.115 32.929C320.808 32.9763 320.507 33.0189 320.213 33.0568C319.925 33.09 319.69 33.1184 319.51 33.142C319.075 33.1989 318.667 33.2912 318.289 33.419C317.915 33.5421 317.612 33.7292 317.38 33.9801C317.152 34.2263 317.039 34.5625 317.039 34.9886C317.039 35.571 317.254 36.0114 317.685 36.3097C318.121 36.6032 318.672 36.75 319.34 36.75Z" fill="#404040"/>
</svg>
